# xmcd CD database file
#
# Track frame offsets:
#	182
#	22687
#	45830
#	78115
#	90812
#	120955
#	150175
#	170660
#	191055
#
# Disc length: 2809 seconds
#
# Revision: 3
# Processed by: cddbd v1.5.2PL0 Copyright (c) Steve Scherf et al.
# Submitted via: CDex 1.51
#
DISCID=490af709
DTITLE=Jimmy Scott - Heaven
DYEAR=1996
DGENRE=Jazz
TTITLE0=Heaven
TTITLE1=All My Tears
TTITLE2=Wayfarin' Stranger
TTITLE3=People Get Ready
TTITLE4=He Looked Beyond My Faults (And Saw My Needs)
TTITLE5=When He Returns
TTITLE6=What Are They Doing In Heaven Today
TTITLE7=Just As I Am
TTITLE8=There's No Disappointment In Heaven
EXTD=Recorded by Danny Kopelson - at Sear Sound    March and April, 1996\nPhotography by Dennis Keeley\nJimmy Scott ( vocals ]\nJacky Terrasson ( piano, arrange ), Joseph Bonadio ( percussin ), Hilliard Greene ( bass ) \n\nRecorded by Danny Kopelson - at S
EXTD=ear Sound    March and April, 1996\nPhotography by Dennis Keeley\nProduced by Craig Street \n\nUS issue includes Jimmy'words.\nUSA   < CD > Sep.24, 1996 - Sire/Wea/Warner Bros. - 9 46211-2 YEAR: 1996
EXTT0=Heaven David Byrne - Jerry Harrison
EXTT1=Julie Miller
EXTT2=Traditional
EXTT3=Curtis Mayfield
EXTT4=Joyce Rambo
EXTT5=Bob Dylan
EXTT6=Charles E. Tindley
EXTT7=Traditional
EXTT8=Traditional
PLAYORDER=
